#N canvas 176 156 687 559 10;
#X obj 133 167 osc~ 880;
#X obj 162 359 dac~;
#X obj 132 198 *~ 0.3;
#X obj 201 198 *~ 0.3;
#X obj 261 170 loadbang;
#X obj 261 229 random 128;
#X obj 261 256 send cursor;
#X obj 162 312 *~;
#X obj 200 167 osc~ 2;
#X obj 261 198 metro 100;
#X obj 132 92 mtof;
#X obj 131 51 r frequencyInput;
#X connect 0 0 2 0;
#X connect 2 0 7 0;
#X connect 3 0 7 1;
#X connect 4 0 9 0;
#X connect 5 0 6 0;
#X connect 7 0 1 0;
#X connect 7 0 1 1;
#X connect 8 0 3 0;
#X connect 9 0 5 0;
#X connect 10 0 0 0;
#X connect 11 0 10 0;
